<svg xmlns="http://www.w3.org/2000/svg" width="14.047" height="12.291" viewBox="0 0 14.047 12.291">
  <path id="Icon_awesome-sort-amount-up" data-name="Icon awesome-sort-amount-up" d="M8.34,12.785H6.584a.439.439,0,0,0-.439.439V14.1a.439.439,0,0,0,.439.439H8.34a.439.439,0,0,0,.439-.439v-.878A.439.439,0,0,0,8.34,12.785ZM.439,5.762H1.756V14.1a.439.439,0,0,0,.439.439h.878a.439.439,0,0,0,.439-.439V5.762H4.828a.439.439,0,0,0,.31-.749L2.944,2.379a.439.439,0,0,0-.621,0L.128,5.012A.439.439,0,0,0,.439,5.762Zm11.413,0H6.584a.439.439,0,0,0-.439.439v.878a.439.439,0,0,0,.439.439h5.268a.439.439,0,0,0,.439-.439V6.2A.439.439,0,0,0,11.852,5.762ZM10.1,9.274H6.584a.439.439,0,0,0-.439.439v.878a.439.439,0,0,0,.439.439H10.1a.439.439,0,0,0,.439-.439V9.712A.439.439,0,0,0,10.1,9.274ZM13.608,2.25H6.584a.439.439,0,0,0-.439.439v.878a.439.439,0,0,0,.439.439h7.024a.439.439,0,0,0,.439-.439V2.689A.439.439,0,0,0,13.608,2.25Z" transform="translate(0 -2.25)" fill="#004379"/>
</svg>
