<svg xmlns="http://www.w3.org/2000/svg" xmlns:xlink="http://www.w3.org/1999/xlink" width="200px" height="56px" viewBox="0 0 200 56"><title>Logo/Giunti White</title><defs><polygon id="path-1" points="2.74053016e-15 0 6.47196766 0 6.47196766 10.3335067 2.74053016e-15 10.3335067"></polygon><polygon id="path-3" points="0 -1.0948945e-14 7.76790398 -1.0948945e-14 7.76790398 10.3325321 0 10.3325321"></polygon><polygon id="path-5" points="0 -1.0948945e-14 9.80283255 -1.0948945e-14 9.80283255 10.3325321 0 10.3325321"></polygon><polygon id="path-7" points="0 55.7692308 200 55.7692308 200 0 0 0"></polygon></defs><g id="Logo/Giunti-White" stroke="none" stroke-width="1" fill="none" fill-rule="evenodd"><polygon id="Fill-1" fill="#FFFFFF" points="190.384615 1.92307692 190.384615 7.53255198 180.047612 7.53255198 180.047612 37.5 172.826207 37.5 172.826207 7.53255198 162.5 7.53255198 162.5 1.92307692"></polygon><polygon id="Fill-2" fill="#FFFFFF" points="160.576923 1.92307692 160.576923 37.5 151.697607 37.5 139.217226 13.5592355 137.827069 10.8976279 137.71536 10.8976279 137.71536 37.5 130.769231 37.5 130.769231 1.92307692 139.696644 1.92307692 145.879428 13.8363594 153.51443 28.5376302 153.610624 28.5376302 153.610624 1.92307692"></polygon><polygon id="Fill-3" fill="#FFFFFF" points="192.307692 37.5 200 37.5 200 1.92307692 192.307692 1.92307692"></polygon><polygon id="Fill-4" fill="#FFFFFF" points="81.7307692 37.5 89.4230769 37.5 89.4230769 1.92307692 81.7307692 1.92307692"></polygon><g id="Group-50" transform="translate(0.000000, 0.000000)"><path d="M77.1872011,16.8557384 L77.1872011,36.2467641 C73.3518467,37.2714805 69.377642,38.1082039 65.5068037,38.1082039 C53.8294918,38.1082039 45.7206332,32.2819588 45.7206332,20.0901442 C45.7206332,19.6848804 45.7206332,19.2857803 45.7453177,18.8990076 C46.2174087,7.32664571 53.6644142,0.857834073 65.4944614,0.857834073 C69.0783424,0.81776997 72.6483384,1.32319403 76.0794841,2.35561514 L75.607393,8.43611317 C72.8273011,7.14789818 69.2171928,6.51919995 66.3167639,6.51919995 C58.6830819,6.51919995 54.1550187,11.1897498 53.3728285,17.5506965 C53.2910611,18.2256225 53.249406,18.9051714 53.249406,19.5847202 C53.249406,26.9087463 57.792897,32.426806 65.5006325,32.426806 C67.098954,32.4499199 68.6941899,32.2711723 70.2493135,31.898268 L70.2493135,22.5186452 L62.604832,22.5186452 L62.604832,16.8557384 L77.1872011,16.8557384 Z" id="Fill-5" fill="#FFFFFF"></path><path d="M124.692215,1.48946006 L124.692215,24.4816321 C124.692215,34.1324581 119.227684,38.1080498 109.974081,38.1080498 C100.722022,38.1080498 95.2497763,34.1278353 95.2497763,24.4816321 L95.2497763,1.48946006 L102.474621,1.48946006 L102.474621,22.2688609 C102.474621,28.4079142 104.455552,32.4281928 109.974081,32.4281928 C115.494153,32.4281928 117.475084,28.4079142 117.475084,22.2688609 L117.475084,1.48946006 L124.692215,1.48946006 Z" id="Fill-7" fill="#FFFFFF"></path><path d="M4.30744546,45.6089744 L6.8406924,45.6089744 C9.01755685,45.6135971 11.0000309,46.2376726 11.0000309,48.6276504 C11.0000309,50.9621548 9.29217193,51.8065828 7.14770588,51.8065828 L6.30689006,51.8065828 L6.30689006,55.6018861 L4.30744546,55.6018861 L4.30744546,45.6089744 Z M6.30689006,50.2317554 L6.99959888,50.2317554 C8.00086396,50.2317554 8.90339103,49.901997 8.90339103,48.7324334 C8.90339103,47.5644107 8.0301768,47.1714744 6.99959888,47.1714744 L6.30689006,47.1714744 L6.30689006,50.2317554 Z" id="Fill-9" fill="#FFFFFF"></path><g id="Group-13" transform="translate(18.989941, 45.435724)"><mask id="mask-2" fill="white"><use xlink:href="#path-1"></use></mask><g id="Clip-12"></g><path d="M5.69749144,2.00387157 C5.05569441,1.72496378 4.36452837,1.58011664 3.66564843,1.57703478 C2.97756796,1.57703478 2.08738313,1.87597463 2.08738313,2.96541003 C2.08738313,4.69587107 6.47196766,3.96393074 6.47196766,7.31390608 C6.47196766,9.50202246 4.73788145,10.334123 2.72300904,10.334123 C1.63534821,10.334123 1.14782931,10.1908168 0.157363695,9.94889129 L0.342497454,8.14292482 C1.03674905,8.53277936 1.81431084,8.74388636 2.610386,8.7577547 C3.36017773,8.7577547 4.38458453,8.37252295 4.38458453,7.47108064 C4.38458453,5.5695767 2.74053016e-15,6.35544948 2.74053016e-15,3.04707916 C2.74053016e-15,0.815816834 1.73254343,0.000666439645 3.50057083,0.000666439645 C4.31207381,-0.0101200495 5.11894844,0.110072258 5.89188188,0.358161509 L5.69749144,2.00387157 Z" id="Fill-11" fill="#FFFFFF" mask="url(#mask-2)"></path></g><polygon id="Fill-14" fill="#FFFFFF" points="40.2749236 45.6089744 37.866642 49.8018368 35.5046438 45.6089744 33.1519022 45.6089744 36.8052084 51.6463264 36.8052084 55.5972633 38.8154525 55.5972633 38.8154525 51.6463264 42.3947052 45.6089744"></polygon><g id="Group-18" transform="translate(50.099509, 45.436699)"><mask id="mask-4" fill="white"><use xlink:href="#path-3"></use></mask><g id="Clip-17"></g><path d="M7.76790398,10.0175666 C7.0227406,10.2086415 6.25752106,10.3149655 5.48767318,10.3334566 C2.25091795,10.3334566 0,8.71394231 0,5.3377712 C0,1.91845414 2.09355426,-1.0948945e-14 5.48767318,-1.0948945e-14 C6.2621494,0.00308185404 7.02891172,0.14484714 7.75247616,0.417591223 L7.61054028,2.10490631 C6.95022987,1.7335429 6.20198093,1.55017258 5.44601808,1.57482742 C3.38331945,1.57482742 2.09355426,3.14811391 2.09355426,5.19446499 C2.09355426,7.23927515 3.34320713,8.75708826 5.48767318,8.75708826 C6.24055046,8.76787475 6.98725663,8.62765039 7.683051,8.3425789 L7.76790398,10.0175666 Z" id="Fill-16" fill="#FFFFFF" mask="url(#mask-4)"></path></g><polygon id="Fill-19" fill="#FFFFFF" points="72.2350273 45.6089744 72.2350273 49.6446622 68.2222531 49.6446622 68.2222531 45.6089744 66.2181801 45.6089744 66.2181801 55.5972633 68.2222531 55.5972633 68.2222531 51.2179487 72.2350273 51.2179487 72.2350273 55.5972633 74.2421858 55.5972633 74.2421858 45.6089744"></polygon><g id="Group-23" transform="translate(82.947792, 45.436699)"><mask id="mask-6" fill="white"><use xlink:href="#path-5"></use></mask><g id="Clip-22"></g><path d="M4.90450184,-1.0948945e-14 C8.03943349,-1.0948945e-14 9.80283255,2.11723373 9.80283255,5.13899162 C9.80283255,8.15920858 8.07028912,10.3334566 4.90450184,10.3334566 C1.6939739,10.3334566 0,8.19927268 0,5.13899162 C0,2.07716963 1.72174396,-1.0948945e-14 4.90450184,-1.0948945e-14 M4.90450184,8.75708826 C6.95177266,8.75708826 7.71236385,6.93879438 7.71236385,5.13899162 C7.71236385,3.3761711 6.89160418,1.57482742 4.90450184,1.57482742 C2.91739949,1.57482742 2.09509704,3.3761711 2.09509704,5.13899162 C2.09509704,6.93879438 2.84488877,8.75708826 4.90450184,8.75708826" id="Fill-21" fill="#FFFFFF" mask="url(#mask-6)"></path></g><polygon id="Fill-24" fill="#FFFFFF" points="109.454935 45.6089744 107.074424 53.1795488 107.045111 53.1795488 104.667685 45.6089744 101.457157 45.6089744 101.457157 55.5972633 103.37792 55.5972633 103.37792 47.3810404 103.407233 47.3548447 106.099386 55.5972633 108.020149 55.5972633 110.712302 47.3548447 110.744701 47.3548447 110.744701 55.5972633 112.665463 55.5972633 112.665463 45.6089744"></polygon><polygon id="Fill-26" fill="#FFFFFF" points="121.859669 45.6089744 121.859669 55.5972633 127.79012 55.5972633 127.79012 54.0239768 123.865284 54.0239768 123.865284 51.2179487 127.429109 51.2179487 127.429109 49.6446622 123.865284 49.6446622 123.865284 47.179179 127.759264 47.179179 127.759264 45.6089744"></polygon><polygon id="Fill-28" fill="#FFFFFF" points="135.654756 45.6089744 135.654756 47.179179 138.516616 47.179179 138.516616 55.5972633 140.523774 55.5972633 140.523774 47.179179 143.390262 47.179179 143.390262 45.6089744"></polygon><path d="M151.374772,45.6089744 L153.539295,45.6089744 C155.689932,45.6089744 158.254034,45.5365508 158.254034,48.3133013 C158.277176,49.5059788 157.377735,50.5168269 156.189793,50.6323964 L156.189793,50.6601331 C156.734395,50.7032791 157.049122,51.2472263 157.249684,51.6894724 L158.849548,55.6018861 L156.614058,55.6018861 L155.409146,52.4830498 C155.122188,51.7341593 154.867629,51.4521696 154.0191,51.4521696 L153.374217,51.4521696 L153.374217,55.6018861 L151.374772,55.6018861 L151.374772,45.6089744 Z M153.374217,49.8742604 L154.037613,49.8742604 C155.037335,49.8742604 156.154309,49.7294132 156.154309,48.4828033 C156.154309,47.2808802 155.038878,47.179179 154.037613,47.179179 L153.374217,47.179179 L153.374217,49.8742604 Z" id="Fill-30" fill="#FFFFFF"></path><mask id="mask-8" fill="white"><use xlink:href="#path-7"></use></mask><g id="Clip-33"></g><polygon id="Fill-32" fill="#FFFFFF" mask="url(#mask-8)" points="166.996822 55.5966469 169.002438 55.5966469 169.002438 45.608358 166.996822 45.608358"></polygon><path d="M185.307013,55.4542653 C184.56185,55.6453402 183.798173,55.7516642 183.029868,55.7701553 C179.779228,55.7701553 177.529853,54.150641 177.529853,50.7744699 C177.529853,47.3551529 179.618779,45.4366987 183.029868,45.4366987 C183.798173,45.4413215 184.560307,45.5830868 185.279243,45.8542899 L185.137308,47.541605 C184.486254,47.1748644 183.747262,46.9914941 182.999013,47.0115261 C180.934771,47.0115261 179.645006,48.5848126 179.645006,50.6311637 C179.645006,52.6759739 180.907001,54.193787 183.04221,54.193787 C183.793545,54.2045735 184.537166,54.0643491 185.231417,53.7792776 L185.307013,55.4542653 Z" id="Fill-34" fill="#FFFFFF" mask="url(#mask-8)"></path><path d="M199.031905,47.4395957 C198.390108,47.1606879 197.698942,47.0158407 197.000062,47.0127589 C196.315067,47.0127589 195.424882,47.3116987 195.424882,48.4011341 C195.424882,50.1315952 199.809467,49.3996548 199.809467,52.7496302 C199.809467,54.9377465 198.076923,55.7698471 196.058965,55.7698471 C194.966676,55.7698471 194.479157,55.6265409 193.491777,55.3846154 L193.676911,53.5786489 C194.36962,53.9685035 195.147181,54.1796105 195.941714,54.1934788 C196.691505,54.1934788 197.718998,53.808247 197.718998,52.9068047 C197.718998,51.0053008 193.331328,51.7911736 193.331328,48.4828033 C193.331328,46.2515409 195.063871,45.4363905 196.831899,45.4363905 C197.643402,45.425604 198.451819,45.5457964 199.224752,45.7938856 L199.031905,47.4395957 Z" id="Fill-35" fill="#FFFFFF" mask="url(#mask-8)"></path><path d="M11.0950662,23.640286 C11.2894566,25.6003452 11.6365824,27.5419132 12.1318152,29.4480399 C13.4616927,28.9256657 14.842482,28.538893 16.2494986,28.2954265 C14.017094,27.4294255 12.1811842,25.772929 11.0950662,23.640286" id="Fill-36" fill="#FFFFFF" mask="url(#mask-8)"></path><path d="M5.98012898,5.41250616 C7.48279799,6.89333703 9.21071307,8.1291605 11.0975346,9.07528969 C12.3117035,4.81308555 14.2494369,1.57251603 16.6129779,0.000770463511 C16.5913789,-0.000770463511 16.5713228,-0.000770463511 16.5497238,0.000770463511 C12.0648585,0.828248274 8.6877102,2.75286612 5.98012898,5.41250616" id="Fill-37" fill="#FFFFFF" mask="url(#mask-8)"></path><path d="M11.2126261,13.9275148 C11.1848561,14.1571129 11.157086,14.3897929 11.1401154,14.620932 C11.7325434,13.3881903 12.4684501,12.2294132 13.3324077,11.1677145 C12.8325465,10.9982125 12.3172576,10.8133013 11.8328242,10.6068171 C11.5720942,11.6546474 11.3730754,12.7764423 11.2126261,13.9275148" id="Fill-38" fill="#FFFFFF" mask="url(#mask-8)"></path><path d="M28.442408,24.0398484 C27.4365145,25.9367295 25.845907,27.4591654 23.9081737,28.3852626 C25.1470271,28.628729 26.361196,28.9816013 27.5383381,29.4407976 C28.308186,26.36973 28.7185658,23.2185343 28.7633065,20.0519292 L22.3221945,20.0519292 C23.5193928,22.1645402 25.6777438,23.4450505 28.442408,24.0398484" id="Fill-39" fill="#FFFFFF" mask="url(#mask-8)"></path><path d="M9.73016755,20.0422214 L-0.000154278133,20.0422214 C0.217377889,24.5710059 1.60742386,28.0781558 3.59452621,30.8934295 C4.17306921,31.727071 4.8179518,32.5114029 5.52300287,33.2418023 L5.69579438,33.4282544 C7.28794471,31.9890286 9.09145608,30.7994329 11.0430745,29.9026134 C10.1822025,26.6866987 9.74096702,23.3721647 9.73016755,20.0422214" id="Fill-40" fill="#FFFFFF" mask="url(#mask-8)"></path><path d="M27.7074269,10.189534 C27.7074269,10.1617973 27.6842852,10.189534 27.6596007,10.189534 C25.9162578,10.759677 24.3688482,11.8121302 23.1978771,13.2236193 C22.1642136,14.5087525 21.2370021,16.6182816 21.8417723,18.9666543 L28.7673177,18.9666543 C28.7256626,16.0111563 28.3708229,13.0695266 27.7074269,10.189534" id="Fill-41" fill="#FFFFFF" mask="url(#mask-8)"></path><path d="M29.9847265,20.0422214 C29.973927,23.3752465 29.5326915,26.6913215 28.6702768,29.910318 C30.5894967,30.797892 32.3667808,31.9674556 33.9419606,33.3789448 C35.5572526,31.7517258 36.8686167,29.8502219 37.8205128,27.7653476 C38.9405721,25.3399285 39.5592274,22.7141889 39.6379092,20.0437623 L29.9847265,20.0422214 Z" id="Fill-42" fill="#FFFFFF" mask="url(#mask-8)"></path><path d="M28.8273319,9.85915927 C29.567867,12.8377712 29.9551051,15.8918886 29.9828751,18.9583333 L39.6499429,18.9583333 C39.5450338,17.5021573 39.4324108,16.1523052 39.0744855,14.9642505 C38.4018328,12.716038 36.6754605,11.1905202 34.53408,10.3491741 C33.066895,9.77440828 30.7002684,9.45697732 28.8273319,9.85915927" id="Fill-43" fill="#FFFFFF" mask="url(#mask-8)"></path><path d="M28.357555,30.9589189 C27.1804128,34.6540619 25.429356,37.4893676 23.3574007,39.0025579 C27.0230492,38.3430412 30.4233392,36.6526442 33.1602333,34.1286058 C31.7177327,32.8496363 30.1008979,31.7817739 28.357555,30.9589189" id="Fill-44" fill="#FFFFFF" mask="url(#mask-8)"></path><path d="M26.9997532,4.80522682 C27.0876917,4.80522682 27.1879725,4.78827663 27.2774538,4.78827663 C27.7773149,4.78827663 28.2972323,4.78827663 28.7307538,4.80522682 C30.1763399,4.86840483 31.6095838,5.10262574 32.9996297,5.50480769 C33.124595,5.54487179 33.6599401,5.78679734 33.7494215,5.66660503 C33.8095899,5.59264053 33.6198278,5.4539571 33.5704588,5.41697485 C33.3004721,5.1457717 32.9872875,4.86994576 32.7697553,4.66808432 C30.0482891,2.24728797 26.7050819,0.630855523 23.1150298,0.000616370809 C24.5945571,1.00067801 25.9120923,2.66487919 26.9997532,4.80522682" id="Fill-45" fill="#FFFFFF" mask="url(#mask-8)"></path><path d="M19.8576013,0.0365199704 C17.1901324,0.0365199704 14.7895646,2.53436267 13.135703,6.52844551 C12.7530933,7.50539324 12.4167669,8.52548693 12.1205529,9.55482618 C12.7345799,9.81986563 13.3702058,10.0540865 14.0120028,10.2590298 C14.3622142,9.95546721 14.6831127,9.63187253 15.0302385,9.32830991 C17.7455336,6.94295488 21.2198772,5.33268614 25.7556543,4.78565705 C24.1696751,1.82707717 22.110062,0.0365199704 19.8576013,0.0365199704" id="Fill-46" fill="#FFFFFF" mask="url(#mask-8)"></path><path d="M24.3299701,36.5726701 C24.4626493,36.3954635 24.5799006,36.215175 24.7156654,36.0302638 C25.8341819,34.4122904 26.6179148,32.5339004 27.2566262,30.4875493 C22.4848036,28.5845044 17.1637508,28.5906681 12.3950137,30.5029586 C12.7297973,31.5646573 13.1216637,32.6078649 13.5675275,33.6279586 C15.1982474,37.0426529 17.4152242,39.152182 19.857447,39.152182 C21.4819957,39.1413955 23.0000926,38.1998891 24.3299701,36.5726701" id="Fill-47" fill="#FFFFFF" mask="url(#mask-8)"></path><path d="M11.3524021,30.9513683 C9.58900305,31.781928 7.95365485,32.8621179 6.50035484,34.1611193 C9.27427566,36.6974852 12.7177636,38.390964 16.4219815,39.0396943 C14.3099139,37.5326677 12.5418865,34.6788708 11.3524021,30.9513683" id="Fill-48" fill="#FFFFFF" mask="url(#mask-8)"></path><path d="M9.73232744,18.9587956 C9.7600975,15.994052 10.1211083,13.0400949 10.8122744,10.1570205 C8.73877627,9.14309048 6.8442408,7.79940212 5.20272147,6.17988782 C2.39023111,9.36190212 0.284334598,13.2481201 0.000462834398,18.9587956 L9.73232744,18.9587956 Z" id="Fill-49" fill="#FFFFFF" mask="url(#mask-8)"></path></g></g></svg>